<?xml version="1.0" standalone="no"?>
<!DOCTYPE svg PUBLIC "-//W3C//DTD SVG 20010904//EN"
 "http://www.w3.org/TR/2001/REC-SVG-20010904/DTD/svg10.dtd">
<svg version="1.0" xmlns="http://www.w3.org/2000/svg"
 width="512.000000pt" height="512.000000pt" viewBox="0 0 512.000000 512.000000"
 preserveAspectRatio="xMidYMid meet">
<metadata>
Created by potrace 1.11, written by Peter Selinger 2001-2013
</metadata>
<g transform="translate(0.000000,512.000000) scale(0.100000,-0.100000)"
fill="#000000" stroke="none">
<path d="M0 2560 l0 -2560 2560 0 2560 0 0 2560 0 2560 -2560 0 -2560 0 0
-2560z m3162 2113 c10 -9 18 -30 18 -49 0 -18 6 -34 13 -37 6 -2 1 -5 -13 -5
-14 0 -36 -3 -50 -7 -16 -4 -32 0 -45 9 -19 15 -18 15 12 5 33 -11 73 1 73 22
0 6 -7 3 -16 -5 -21 -21 -40 -20 -63 3 -14 14 -21 16 -25 8 -2 -7 -5 -1 -5 12
-2 52 61 80 101 44z m-1067 -38 c14 -13 24 -32 24 -42 -1 -17 -2 -16 -6 1 -4
17 -6 16 -17 -5 -17 -35 -65 -33 -86 4 -14 27 -14 29 9 48 31 25 47 24 76 -6z
m-41 -85 c9 0 27 5 39 11 21 10 22 10 2 -6 -13 -10 -33 -14 -60 -11 -22 2 -44
5 -48 5 -4 1 -2 7 5 15 11 12 15 12 29 0 8 -8 23 -14 33 -14z m-84 -3 c0 -2
-15 -13 -32 -26 l-33 -22 28 25 c26 24 37 31 37 23z m1300 -27 c6 -11 8 -20 6
-20 -3 0 -10 9 -16 20 -6 11 -8 20 -6 20 3 0 10 -9 16 -20z m-672 -27 c-26 -2
-71 -2 -100 0 -29 2 -8 3 47 3 55 0 79 -1 53 -3z m-191 -9 c-3 -3 -12 -4 -19
-1 -8 3 -5 6 6 6 11 1 17 -2 13 -5z m-537 -7 c0 -2 -12 -14 -27 -28 l-28 -24
24 28 c23 25 31 32 31 24z m477 -3 c-3 -3 -12 -4 -19 -1 -8 3 -5 6 6 6 11 1
17 -2 13 -5z m419 -5 c32 -5 86 -19 119 -31 76 -25 225 -98 225 -110 0 -5 4
-7 8 -4 5 3 18 -4 30 -14 12 -11 25 -20 31 -20 5 0 11 -3 13 -7 2 -5 26 -27
54 -50 28 -23 72 -67 98 -98 l48 -55 -18 -46 c-15 -39 -16 -54 -6 -106 13 -68
57 -170 97 -223 30 -39 110 -95 136 -95 20 0 30 -32 35 -119 1 -35 5 -66 8
-69 11 -10 6 -62 -5 -62 -8 0 -10 -15 -7 -45 3 -25 2 -48 -3 -51 -14 -8 -11
-64 4 -64 18 0 -58 -42 -143 -78 -41 -17 -66 -32 -55 -32 18 0 17 -2 -6 -18
-29 -19 -28 -42 4 -42 81 0 -161 -47 -337 -66 -201 -21 -659 -29 -836 -15
-197 16 -320 32 -320 42 0 5 7 9 16 9 14 0 14 3 4 15 -10 12 -10 15 1 15 11 0
11 2 -1 10 -12 8 -10 10 10 11 14 0 -23 9 -82 19 -167 30 -449 107 -471 129
-26 26 -3 352 28 402 3 4 7 27 9 51 10 100 175 406 234 433 12 5 22 13 22 17
0 15 186 178 246 215 28 18 179 93 186 93 3 0 23 8 44 17 22 9 51 18 66 20
l27 3 -29 -48 c-32 -54 -44 -100 -31 -122 7 -10 31 -15 83 -16 60 -2 65 -1 28
5 l-45 7 45 11 c39 9 41 11 15 12 -23 1 -27 3 -15 11 8 5 27 10 42 10 14 0 28
3 30 8 6 15 74 39 101 36 15 -1 27 2 27 7 0 5 7 9 15 9 9 0 12 -6 9 -15 -11
-27 5 -16 21 15 8 16 29 46 46 65 34 39 49 41 145 24z m593 -52 c-2 -2 -17 12
-33 32 l-30 36 34 -32 c19 -18 32 -34 29 -36z m-1569 -21 c0 -2 -8 -10 -17
-17 -16 -13 -17 -12 -4 4 13 16 21 21 21 13z m-87 -121 c-13 -25 -29 -47 -34
-50 -12 -8 -11 3 2 18 5 7 19 27 29 45 30 49 32 38 3 -13z m-67 -125 c0 -11
-4 -20 -8 -20 -10 0 -11 24 -1 33 9 9 9 10 9 -13z m-142 -72 c-17 -18 -43 -51
-59 -72 -16 -22 -31 -34 -33 -28 -2 7 -9 12 -16 12 -6 0 -11 12 -10 27 1 39
67 93 113 93 l35 0 -30 -32z m2176 -28 c28 -15 68 -89 73 -135 2 -22 2 -30 0
-17 -3 18 -8 21 -17 13 -10 -8 -27 -4 -66 17 -59 30 -75 60 -65 119 5 30 8 31
31 23 14 -6 34 -15 44 -20z m-1753 -1056 c-3 -3 -12 -4 -19 -1 -8 3 -5 6 6 6
11 1 17 -2 13 -5z m1746 -52 c5 -7 12 -10 18 -7 10 7 12 -15 3 -39 -4 -11 -14
-14 -28 -10 -14 3 -28 -1 -37 -12 -13 -16 -12 -16 10 -3 18 11 25 11 28 2 3
-9 11 -8 29 3 l24 16 0 -181 0 -182 -30 16 c-18 9 -56 15 -103 15 -136 0 -230
-70 -278 -205 -50 -142 -1 -278 122 -340 103 -53 183 -41 263 38 47 47 50 48
85 39 20 -5 44 -13 54 -17 15 -6 17 -1 17 35 0 81 18 124 63 153 22 15 46 27
53 27 18 0 84 -29 84 -38 0 -9 -62 -37 -73 -34 -5 1 -6 -2 -2 -8 3 -5 -12 -45
-34 -87 -27 -51 -37 -81 -31 -87 7 -7 10 -4 10 7 0 10 16 49 36 88 30 60 41
73 78 89 40 18 92 17 80 -1 -3 -5 -1 -9 4 -9 6 0 24 -13 42 -30 29 -27 31 -35
6 -31 -18 4 -67 -11 -79 -23 -6 -7 -36 -39 -66 -70 -52 -56 -54 -57 -75 -39
-17 15 -17 13 3 -9 l23 -27 38 48 c65 82 94 101 156 101 34 0 53 -4 49 -10 -3
-5 -14 -10 -23 -10 -12 -1 -10 -5 8 -15 14 -8 21 -15 15 -15 -5 0 -3 -5 5 -10
13 -8 12 -10 -2 -10 -10 0 -18 -4 -18 -9 0 -5 -8 -12 -17 -14 -10 -3 3 -5 30
-6 26 0 47 -4 47 -9 0 -4 -18 -6 -41 -4 -23 3 -46 -1 -52 -8 -9 -9 -6 -10 16
-5 34 9 100 -3 92 -16 -4 -5 -21 -9 -40 -9 -45 0 -41 -20 16 -73 43 -41 64
-72 60 -91 -1 -5 5 -24 14 -42 20 -43 29 -112 21 -168 -7 -41 -13 -49 -78 -98
-40 -29 -108 -72 -152 -95 -45 -23 -77 -43 -73 -43 18 0 155 74 215 116 34 25
63 41 63 37 3 -19 -4 -47 -14 -61 -28 -35 -147 -145 -199 -184 -32 -23 -58
-46 -58 -50 0 -5 -5 -8 -12 -8 -6 0 -19 -6 -27 -14 -9 -8 -45 -25 -81 -38 -57
-20 -74 -22 -145 -15 -44 4 -92 8 -107 9 -17 0 -28 7 -28 15 0 7 -7 16 -16 20
-20 7 -104 -36 -104 -54 0 -8 -13 -13 -31 -13 -28 0 -31 2 -25 25 5 19 -2 40
-25 78 -29 48 -34 52 -70 53 -42 2 -45 -3 -27 -52 29 -81 -72 -179 -252 -245
-87 -31 -111 -60 -139 -167 -29 -111 -107 -264 -169 -329 -106 -114 -224 -143
-328 -83 -94 53 -157 148 -208 309 -15 46 -29 111 -33 143 -4 36 -14 69 -26
84 -23 30 -114 84 -143 84 -11 0 -40 13 -65 29 -93 60 -130 125 -105 185 16
39 90 106 117 106 29 0 22 38 -11 57 -24 15 -24 15 -5 -2 20 -17 20 -17 -5
-10 -14 4 -33 7 -42 8 -9 1 -15 3 -13 6 3 2 -17 19 -45 38 -27 18 -55 43 -62
56 -7 12 -20 22 -28 23 -8 1 -26 4 -39 9 -17 5 -21 4 -16 -5 10 -17 -27 4 -45
24 -7 9 -17 16 -22 16 -5 0 -19 12 -32 27 -20 23 -26 25 -39 15 -10 -9 -17
-10 -22 -2 -3 5 -12 10 -18 10 -17 -1 -67 -75 -73 -109 -5 -26 -8 -27 -30 -17
-13 6 -24 16 -24 22 0 13 -55 54 -74 54 -7 0 -17 -8 -20 -17 -5 -12 -9 -14
-14 -6 -5 8 -26 9 -70 4 -34 -4 -62 -4 -62 0 0 4 -15 9 -32 13 -18 3 -39 7
-46 9 -20 5 -111 78 -146 117 -17 19 -45 49 -63 67 -17 18 -29 33 -27 33 6 0
-13 23 -40 50 -11 11 -16 20 -10 20 5 0 3 4 -4 8 -7 5 -16 23 -21 40 -11 38 5
44 35 11 40 -45 224 -179 224 -164 0 2 -25 20 -55 40 -30 19 -91 70 -136 112
l-81 78 4 56 c3 36 14 76 31 109 15 28 27 58 27 65 0 8 15 25 33 40 l32 26
-27 -7 c-17 -4 -28 -2 -28 4 0 12 52 25 95 24 21 -1 25 2 15 8 -8 5 -22 8 -30
6 -52 -14 -70 -15 -70 -7 0 5 13 12 30 16 16 4 30 11 30 16 0 6 -10 7 -22 3
-20 -6 -21 -5 -9 10 7 9 10 16 6 16 -4 0 -2 6 4 14 9 11 9 15 -1 19 -23 10 14
27 58 27 35 0 51 -8 98 -46 31 -26 56 -50 56 -55 0 -5 5 -9 11 -9 17 0 -7 25
-75 82 -53 44 -63 49 -93 43 -38 -7 -38 -10 7 58 18 27 32 37 52 37 47 0 73
-20 114 -85 21 -36 42 -64 46 -65 10 0 -81 142 -96 152 -6 4 -21 8 -33 8 -30
0 -29 18 2 32 14 6 25 15 25 20 0 14 50 9 86 -8 27 -13 37 -26 48 -63 8 -25
15 -38 15 -28 1 10 -6 34 -14 55 -15 34 -15 38 1 49 10 7 23 13 28 13 23 0
-20 20 -43 20 -17 0 -22 3 -15 10 7 7 25 5 57 -6 47 -16 58 -32 70 -104 3 -17
5 -13 6 13 0 21 -6 51 -14 66 -14 29 -14 29 20 35 l34 7 3 95 c2 54 -1 100 -7
106 -16 17 48 -18 73 -41 13 -11 28 -21 34 -23 6 -2 16 -36 24 -76 7 -40 23
-85 35 -101 16 -22 20 -37 15 -58 -5 -21 -4 -24 4 -13 7 12 10 7 11 -20 l2
-35 6 35 c6 28 9 18 15 -55 12 -147 24 -191 17 -65 -3 63 -6 172 -6 241 0 91
-3 125 -11 122 -7 -2 -15 0 -19 6 -10 17 31 13 45 -4 7 -9 10 -27 7 -45 -15
-75 26 -518 65 -700 24 -114 95 -338 144 -455 30 -71 43 -90 78 -114 79 -54
88 -52 13 3 -43 31 -62 65 -115 207 -108 288 -154 541 -169 937 l-6 163 24 23
c13 12 39 28 56 35 18 7 30 18 26 24 -4 7 5 8 28 3 219 -44 422 -65 727 -73
l242 -6 -23 -31 c-33 -44 -39 -56 -30 -56 5 0 16 12 26 28 43 69 32 66 242 77
279 15 563 72 634 126 13 10 27 17 30 14 4 -2 5 10 3 27 l-5 31 34 -19 c19
-11 38 -25 42 -32z m-2023 -67 c0 -16 -18 -30 -47 -39 -20 -6 -23 -4 -23 18 0
16 6 26 15 26 8 0 15 4 15 9 0 5 9 7 20 4 11 -3 20 -11 20 -18z m-313 -191
c-3 -3 -12 -4 -19 -1 -8 3 -5 6 6 6 11 1 17 -2 13 -5z m-131 -70 c-6 -7 -18
-9 -26 -4 -8 4 -22 10 -30 12 -8 3 3 5 26 4 30 0 38 -4 30 -12z m2213 -204
c22 -6 53 -22 68 -35 26 -24 25 -23 -31 5 -32 16 -69 30 -82 30 -13 0 -24 5
-24 11 0 6 6 9 14 6 8 -3 33 -11 55 -17z m111 3 c0 -5 -4 -14 -9 -21 -6 -10
-13 -8 -32 7 l-24 20 33 1 c17 0 32 -3 32 -7z m317 -114 c-22 -11 -41 -18 -44
-15 -4 3 9 12 28 20 50 22 60 18 16 -5z m-135 -19 c37 0 39 -2 31 -22 -4 -13
-7 -47 -6 -75 1 -55 -5 -64 -27 -38 -7 8 -16 13 -20 10 -5 -3 -11 1 -14 7 -3
7 -4 1 -2 -14 6 -49 -11 -30 -28 30 -9 32 -16 64 -16 72 0 18 34 54 38 41 2
-6 22 -11 44 -11z m-96 -44 l0 -53 -30 18 c-16 10 -33 16 -38 13 -13 -8 -9 30
5 48 10 14 21 19 57 27 3 0 6 -23 6 -53z m232 23 c21 -8 22 -11 8 -36 -7 -16
-17 -52 -21 -80 -6 -47 -9 -52 -26 -43 -10 6 -24 9 -31 8 -26 -6 -36 116 -12
150 16 23 22 23 82 1z"/>
<path d="M2660 4232 c-36 -9 -87 -30 -113 -45 -49 -29 -236 -208 -256 -245
l-11 -21 -48 24 c-100 50 -217 54 -351 13 -55 -17 -75 -30 -131 -87 -74 -73
-104 -135 -115 -237 -11 -102 24 -241 79 -309 16 -20 16 -20 36 5 21 26 27 12
10 -21 -9 -16 -6 -21 22 -33 30 -13 31 -14 9 -15 -24 -1 -24 -1 -6 -21 27 -30
147 -87 212 -100 121 -26 249 2 335 71 36 29 38 29 70 14 18 -8 51 -28 73 -45
63 -46 147 -71 260 -77 172 -9 306 40 425 157 114 112 170 249 170 415 0 167
-46 283 -154 390 -145 143 -353 211 -516 167z m290 -218 c158 -75 253 -251
222 -416 -38 -206 -202 -336 -411 -326 -59 2 -91 10 -141 34 -247 116 -304
436 -113 628 85 85 169 117 293 113 70 -2 97 -8 150 -33z m-491 -88 c-92 -138
-109 -290 -48 -433 26 -62 99 -146 163 -189 62 -42 50 -45 -20 -4 -97 55 -173
168 -195 288 -22 113 8 231 82 330 48 64 59 68 18 8z m-230 -176 c122 -68 120
-249 -3 -357 -53 -46 -101 -63 -182 -63 -136 1 -241 102 -252 241 -5 69 9 117
46 152 48 46 94 57 227 54 107 -2 125 -5 164 -27z"/>
<path d="M2659 3797 c-82 -44 -112 -144 -69 -231 56 -115 225 -124 297 -16 13
18 23 40 22 49 0 9 -7 2 -14 -15 -57 -130 -247 -134 -301 -5 -53 126 48 252
181 227 27 -5 35 -11 31 -22 -5 -12 -2 -12 17 -3 21 12 21 13 -13 25 -54 19
-103 16 -151 -9z"/>
<path d="M2686 3705 c-36 -33 -35 -78 3 -116 16 -16 37 -29 46 -29 25 0 73 28
84 49 13 23 -6 46 -25 30 -7 -6 -18 -8 -24 -4 -13 8 -13 35 0 35 6 0 10 14 10
30 0 27 -3 30 -34 30 -21 0 -42 -9 -60 -25z"/>
<path d="M2894 3625 c-18 -14 -18 -14 4 -8 12 3 22 9 22 14 0 12 -3 11 -26 -6z"/>
<path d="M2026 3721 c-16 -11 -35 -30 -42 -43 -28 -49 -8 -134 35 -158 32 -17
31 -12 -5 24 -79 79 -16 198 98 183 29 -4 37 -3 23 3 -34 15 -79 11 -109 -9z"/>
<path d="M2052 3664 c-36 -25 -28 -70 16 -93 19 -10 28 -10 48 4 30 20 33 49
3 40 -19 -6 -20 -4 -14 29 6 31 5 36 -12 36 -10 0 -29 -7 -41 -16z"/>
<path d="M2190 3592 c0 -23 -45 -71 -73 -76 -12 -3 -31 -7 -42 -9 -12 -3 -8
-5 11 -6 41 -1 94 36 111 77 8 19 9 32 3 32 -5 0 -10 -8 -10 -18z"/>
<path d="M3422 3628 c-2 -18 -9 -58 -17 -89 -20 -76 -17 -87 4 -19 l18 55 18
-40 c9 -22 20 -64 22 -92 9 -95 -55 -190 -172 -252 -22 -11 -50 -21 -62 -21
-12 0 -25 -5 -29 -11 -11 -18 41 -3 116 34 36 17 70 32 75 32 6 1 9 7 7 14 -2
8 3 11 12 8 15 -6 57 47 75 96 23 60 7 186 -35 280 -21 45 -29 47 -32 5z"/>
<path d="M3336 3333 c-6 -14 -5 -15 5 -6 7 7 10 15 7 18 -3 3 -9 -2 -12 -12z"/>
<path d="M3555 2829 c-22 -10 -34 -19 -27 -19 16 0 82 27 82 34 0 9 -12 6 -55
-15z"/>
<path d="M2663 2465 c0 -38 2 -53 4 -32 2 20 2 52 0 70 -2 17 -4 1 -4 -38z"/>
<path d="M1222 2455 c0 -16 2 -22 5 -12 2 9 2 23 0 30 -3 6 -5 -1 -5 -18z"/>
<path d="M2771 2233 c-1 -148 1 -173 14 -173 8 0 15 -4 15 -10 0 -17 46 -11
63 8 22 24 21 28 -2 28 -11 0 -18 -4 -15 -7 2 -4 0 -10 -5 -13 -5 -4 -8 6 -6
21 2 16 0 33 -3 38 -4 6 -8 17 -9 25 -1 8 -13 69 -27 135 l-24 120 -1 -172z"/>
<path d="M2673 2235 c0 -38 2 -53 4 -32 2 20 2 52 0 70 -2 17 -4 1 -4 -38z"/>
<path d="M3923 2258 c-23 -11 -31 -28 -14 -28 5 0 17 -3 27 -7 13 -5 15 -3 9
7 -5 8 -1 18 10 27 23 16 1 17 -32 1z"/>
<path d="M1591 2244 c0 -11 3 -14 6 -6 3 7 2 16 -1 19 -3 4 -6 -2 -5 -13z"/>
<path d="M2683 2070 c0 -30 2 -43 4 -27 2 15 2 39 0 55 -2 15 -4 2 -4 -28z"/>
<path d="M3850 2066 c0 -2 7 -7 16 -10 8 -3 12 -2 9 4 -6 10 -25 14 -25 6z"/>
<path d="M4101 1989 c-13 -5 -21 -12 -18 -15 3 -3 18 1 34 10 31 17 21 20 -16
5z"/>
<path d="M2693 1950 c0 -25 2 -35 4 -22 2 12 2 32 0 45 -2 12 -4 2 -4 -23z"/>
<path d="M2702 1860 c0 -19 2 -27 5 -17 2 9 2 25 0 35 -3 9 -5 1 -5 -18z"/>
<path d="M2712 1795 c0 -16 2 -22 5 -12 2 9 2 23 0 30 -3 6 -5 -1 -5 -18z"/>
<path d="M2722 1735 c0 -16 2 -22 5 -12 2 9 2 23 0 30 -3 6 -5 -1 -5 -18z"/>
<path d="M2732 1680 c0 -14 4 -38 8 -55 7 -27 8 -27 8 -5 0 14 -4 39 -8 55 -7
27 -8 27 -8 5z"/>
<path d="M2752 1575 c0 -11 4 -33 8 -50 7 -27 8 -27 8 -5 0 14 -4 36 -8 50 -6
20 -8 21 -8 5z"/>
<path d="M2775 1465 c3 -16 8 -56 12 -87 3 -32 9 -55 13 -53 8 5 -5 94 -20
140 l-10 30 5 -30z"/>
<path d="M2985 1353 c-60 -13 -120 -26 -132 -29 -37 -7 -17 -30 22 -26 34 4
36 2 61 -52 26 -58 41 -77 23 -29 -6 16 -6 29 0 32 5 3 11 17 13 31 3 19 10 8
27 -47 25 -80 36 -87 90 -58 l29 14 -19 68 c-22 80 -23 94 -4 69 7 -10 18 -15
24 -11 6 3 11 -1 11 -9 0 -8 4 -17 9 -20 5 -4 2 16 -7 44 -9 27 -21 49 -26 49
-6 -1 -60 -13 -121 -26z m94 -100 l21 -53 -30 -15 c-24 -12 -31 -13 -34 -3 -2
7 -9 28 -15 47 -14 42 -14 54 -1 46 6 -3 10 -1 10 6 0 9 3 9 14 0 12 -10 13
-8 9 11 -9 37 4 17 26 -39z"/>
<path d="M3990 1360 c-8 -5 -10 -10 -5 -10 6 0 17 5 25 10 8 5 11 10 5 10 -5
0 -17 -5 -25 -10z"/>
<path d="M2043 1278 c-18 -67 -19 -79 -6 -63 15 20 15 20 10 -4 l-6 -23 20 21
c11 11 24 31 30 43 9 21 9 21 4 -4 -3 -16 -8 -39 -11 -52 -5 -22 -1 -26 36
-36 62 -17 71 -11 93 53 26 80 31 67 6 -17 l-20 -67 -57 7 c-31 4 -63 7 -69 7
-7 0 -13 7 -14 16 0 10 -5 6 -11 -9 l-11 -25 -7 30 -6 30 -6 -30 c-4 -16 -3
-34 2 -39 8 -8 171 -59 175 -54 1 2 16 46 34 98 19 52 40 106 48 119 8 13 11
26 6 30 -4 4 -46 16 -93 25 -47 10 -94 20 -105 22 -18 5 -23 -4 -42 -78z m84
-81 c-5 8 -1 11 12 10 11 0 17 -6 14 -14 -3 -8 2 -13 13 -13 9 0 15 -2 13 -5
-11 -11 -79 8 -79 23 0 12 2 12 17 1 10 -8 14 -9 10 -2z"/>
<path d="M3957 1305 c-9 -19 -15 -35 -12 -35 7 0 37 61 33 66 -3 2 -12 -12
-21 -31z"/>
<path d="M2639 1299 c-15 -4 -18 -7 -7 -8 17 -1 23 -19 34 -103 l6 -48 -46 -1
c-25 -1 -52 -2 -58 -3 -9 -1 -15 20 -19 59 -7 74 -4 83 29 88 21 3 18 4 -10 6
-36 1 -38 0 -38 -31 0 -18 3 -57 6 -85 l7 -53 51 0 c28 0 61 3 73 6 24 6 24 6
8 132 -4 30 -2 32 18 26 12 -4 25 -12 29 -18 5 -6 8 -2 8 11 0 14 8 23 23 26
12 3 -3 4 -34 4 -31 -1 -67 -5 -80 -8z"/>
<path d="M2325 1290 c3 -5 8 -10 11 -10 2 0 4 5 4 10 0 6 -5 10 -11 10 -5 0
-7 -4 -4 -10z"/>
<path d="M2443 1283 c9 -2 23 -2 30 0 6 3 -1 5 -18 5 -16 0 -22 -2 -12 -5z"/>
<path d="M2980 1139 c0 -27 21 -47 42 -42 53 11 88 25 88 34 0 5 -11 4 -26 -1
-33 -13 -37 -13 -28 1 4 7 1 10 -7 7 -8 -3 -26 -1 -41 3 -17 5 -28 4 -28 -2z"/>
<path d="M2741 1119 c-1 -25 -5 -26 -103 -43 -57 -10 -110 -19 -120 -20 -9 -1
-24 -9 -34 -17 -10 -8 -15 -9 -11 -2 4 6 3 14 -3 18 -6 4 -10 -5 -10 -19 l0
-26 93 0 c52 0 119 5 150 11 62 13 62 13 48 84 -6 29 -9 33 -10 14z"/>
</g>
</svg>
